<svg width="30" height="30" viewBox="0 0 30 30" fill="none" xmlns="http://www.w3.org/2000/svg">
<path d="M16.8375 9.26253L19.9125 7.75002C20.2875 7.56252 20.3875 7.07503 20.1 6.77503C18.9875 5.55003 17.8625 4.52503 16.9625 3.75003C16.55 3.40003 15.9375 3.68753 15.9375 4.22503V8.70003C15.9375 9.16253 16.425 9.46252 16.8375 9.26253Z" fill="#1AAB7B"/>
<path d="M15.9375 24.675V26.7375C15.9375 27.1125 16.275 27.425 16.65 27.3625C20.0625 26.8 22.9125 24.5125 24.2625 21.4375C24.5 20.9125 23.925 20.3875 23.4 20.6375L16.2875 24.125C16.075 24.225 15.9375 24.4375 15.9375 24.675Z" fill="#1AAB7B"/>
<path d="M14.0625 4.20003C14.0625 3.66253 13.45 3.37503 13.0375 3.71253C10.0875 6.18753 4.84997 11.4 4.87497 17.375C4.87497 22.4 8.54997 26.5625 13.35 27.3625C13.725 27.425 14.0625 27.1125 14.0625 26.7375V4.20003Z" fill="#1AAB7B"/>
<path d="M16.8 15.5875L23.4125 12.8125C23.75 12.6625 23.9125 12.275 23.75 11.95C23.2875 11.0375 22.75 10.15 22.1625 9.32499C21.9875 9.07499 21.6625 8.99999 21.3875 9.12499L16.275 11.6125C16.0625 11.7125 15.925 11.9375 15.925 12.175V15.0125C15.9375 15.45 16.3875 15.7625 16.8 15.5875Z" fill="#1AAB7B"/>
<path d="M24.7875 17.8875C24.9875 17.7875 25.1125 17.6 25.1125 17.3875C25.1125 16.5875 25.0125 15.8 24.8375 15.025C24.75 14.65 24.3375 14.45 23.9875 14.6L16.3125 17.875C16.0875 17.975 15.9375 18.2 15.9375 18.45V21.2C15.9375 21.6625 16.425 21.9625 16.8375 21.7625L24.2125 18.175L24.7875 17.8875Z" fill="#1AAB7B"/>
</svg>
