<svg width="30" height="30" viewBox="0 0 30 30" fill="none" xmlns="http://www.w3.org/2000/svg">
<path d="M26.3 16.6L25.15 15.475L15.4625 25.15L16.625 26.3125C17.6 27.2875 18.6125 27.775 19.6125 27.775C20.6125 27.775 21.625 27.2875 22.6 26.3125L26.3 22.6125C28.2875 20.6125 28.2875 18.6 26.3 16.6Z" fill="#1AAB7B"/>
<path d="M13.3625 3.66255C11.4 1.70005 9.33751 1.70005 7.37501 3.66255L3.66251 7.36255C1.71251 9.32505 1.71251 11.3875 3.66251 13.35L4.81251 14.5L14.5 4.81255L13.3625 3.66255Z" fill="#1AAB7B"/>
<path d="M27.2625 4.92499C25.625 9.01249 21.8875 14.35 18.325 17.8375C17.8125 14.6125 15.2375 12.0875 11.9875 11.6375C15.4875 8.06249 20.8625 4.27499 24.9625 2.62499C25.6875 2.34999 26.4125 2.56249 26.8625 3.01249C27.3375 3.48749 27.5625 4.19999 27.2625 4.92499Z" fill="#1AAB7B"/>
<path d="M17.225 18.8625C16.975 19.075 16.725 19.2875 16.475 19.4875L14.2375 21.275C14.2375 21.2375 14.225 21.1875 14.225 21.1375C14.05 19.8 13.425 18.5625 12.4125 17.55C11.3875 16.525 10.1125 15.9 8.71252 15.725C8.67502 15.725 8.62502 15.7125 8.58752 15.7125L10.4 13.425C10.575 13.2 10.7625 12.9875 10.9625 12.7625L11.8125 12.875C14.5 13.25 16.6625 15.3625 17.0875 18.0375L17.225 18.8625Z" fill="#1AAB7B"/>
<path d="M13.0375 22.025C13.0375 23.4 12.5125 24.7125 11.5125 25.7C10.75 26.475 9.72501 27 8.47501 27.15L5.41251 27.4875C3.73751 27.675 2.30001 26.2375 2.48751 24.55L2.82501 21.475C3.12501 18.7375 5.41251 16.9875 7.83751 16.9375C8.07501 16.925 8.33751 16.9375 8.58751 16.9625C9.65001 17.1 10.675 17.5875 11.5375 18.4375C12.375 19.275 12.85 20.2625 12.9875 21.3C13.0125 21.55 13.0375 21.7875 13.0375 22.025Z" fill="#1AAB7B"/>
</svg>
