<svg width="13" height="24" viewBox="0 0 13 24" fill="none" xmlns="http://www.w3.org/2000/svg">
<path d="M12.474 1.64629e-05H9.36525C5.87188 1.64629e-05 3.61923 2.31802 3.61923 5.90602V8.62902H0.488492C0.424259 8.62902 0.360656 8.6417 0.301325 8.66633C0.241993 8.69097 0.188098 8.72708 0.142724 8.77259C0.0973505 8.81811 0.0613886 8.87213 0.0368984 8.93158C0.0124082 8.99102 -0.000130336 9.05472 1.0215e-06 9.11902V13.065C1.0215e-06 13.1947 0.0514668 13.3191 0.143077 13.4108C0.234687 13.5025 0.358937 13.554 0.488492 13.554H3.61923V23.51C3.61923 23.5742 3.63187 23.6378 3.65642 23.6971C3.68096 23.7565 3.71695 23.8104 3.76231 23.8558C3.80767 23.9012 3.86152 23.9372 3.92078 23.9618C3.98005 23.9864 4.04357 23.999 4.10772 23.999H8.18647C8.25062 23.999 8.31415 23.9864 8.37341 23.9618C8.43268 23.9372 8.48653 23.9012 8.53189 23.8558C8.57725 23.8104 8.61323 23.7565 8.63778 23.6971C8.66233 23.6378 8.67496 23.5742 8.67496 23.51V13.554H12.3302C12.4597 13.554 12.584 13.5025 12.6756 13.4108C12.7672 13.3191 12.8186 13.1947 12.8186 13.065V9.11902C12.8186 8.98906 12.7671 8.86443 12.6753 8.77253C12.5835 8.68064 12.459 8.62902 12.3292 8.62902H8.67297V6.32102C8.67297 5.21102 8.93669 4.64802 10.3812 4.64802H12.479C12.6086 4.64802 12.7328 4.5965 12.8244 4.50479C12.916 4.41309 12.9675 4.28871 12.9675 4.15902V0.494016C12.968 0.428995 12.9556 0.364518 12.931 0.304342C12.9064 0.244167 12.8701 0.189496 12.8241 0.143518C12.7782 0.097539 12.7236 0.0611714 12.6635 0.0365343C12.6034 0.0118972 12.539 -0.000516527 12.474 1.64629e-05Z" fill="white"/>
</svg>
