<svg width="30" height="30" viewBox="0 0 30 30" fill="none" xmlns="http://www.w3.org/2000/svg">
<path d="M25.6875 11.8H24.3125C24.125 11.8 23.9375 11.8375 23.7625 11.8875L17.525 5.64999C18.125 4.87499 18.075 3.76249 17.3625 3.06249L16.3875 2.08749C15.65 1.34999 14.35 1.34999 13.6 2.08749L12.625 3.06249C11.925 3.76249 11.875 4.87499 12.475 5.64999L6.23749 11.8875C6.06249 11.8375 5.87499 11.8 5.68749 11.8H4.31249C3.22499 11.8 2.33749 12.6875 2.33749 13.775V15.15C2.33749 16.2375 3.22499 17.125 4.31249 17.125H5.68749C6.77499 17.125 7.66249 16.2375 7.66249 15.15V13.775C7.66249 13.5875 7.62499 13.4 7.57499 13.225L13.8125 6.98749C14.15 7.24999 14.575 7.38749 15 7.38749C15.425 7.38749 15.85 7.23749 16.2 6.97499L22.4375 13.2125C22.3875 13.3875 22.35 13.575 22.35 13.7625V15.1375C22.35 16.225 23.2375 17.1125 24.325 17.1125H25.7C26.7875 17.1125 27.675 16.225 27.675 15.1375V13.7625C27.65 12.675 26.775 11.8 25.6875 11.8Z" fill="#1AAB7B"/>
<path d="M19.6875 20.6875L17.6375 22.5H12.3125L10.2625 20.6875C9.075 19.7125 9.075 18.9625 9.975 17.8125L13.5875 13.2375C13.8375 12.925 14.125 12.7125 14.45 12.6C14.7875 12.4875 15.15 12.4875 15.5 12.6C15.8125 12.7125 16.1 12.925 16.3625 13.2375L19.975 17.8125C20.875 18.95 20.8375 19.6625 19.6875 20.6875Z" fill="#1AAB7B"/>
<path d="M16.6125 27.5H13.375C12.225 27.5 11.3625 26.5625 11.5875 25.5625L11.975 23.825C12.05 23.475 12.3625 23.2375 12.7125 23.2375H17.275C17.625 23.2375 17.925 23.475 18.0125 23.825L18.4 25.5625C18.65 26.625 17.8375 27.5 16.6125 27.5Z" fill="#1AAB7B"/>
</svg>
