<svg width="30" height="30" viewBox="0 0 30 30" fill="none" xmlns="http://www.w3.org/2000/svg">
<path d="M24.425 8.175L20.5875 4.3375C19.4125 3.1625 17.825 2.5 16.1625 2.5H10C6.25 2.5 3.75 5 3.75 8.75V21.25C3.75 25 6.25 27.5 10 27.5H20C23.75 27.5 26.25 25 26.25 21.25V12.5875C26.25 10.925 25.5875 9.3375 24.425 8.175ZM12.5375 21.8375C12.9 22.2 12.9 22.8 12.5375 23.1625C12.35 23.35 12.1125 23.4375 11.875 23.4375C11.6375 23.4375 11.4 23.35 11.2125 23.1625L8.7125 20.6625C8.35 20.3 8.35 19.7 8.7125 19.3375L11.2125 16.8375C11.575 16.475 12.175 16.475 12.5375 16.8375C12.9 17.2 12.9 17.8 12.5375 18.1625L10.7 20L12.5375 21.8375ZM21.2875 20.6625L18.7875 23.1625C18.6 23.35 18.3625 23.4375 18.125 23.4375C17.8875 23.4375 17.65 23.35 17.4625 23.1625C17.1 22.8 17.1 22.2 17.4625 21.8375L19.3 20L17.4625 18.1625C17.1 17.8 17.1 17.2 17.4625 16.8375C17.825 16.475 18.425 16.475 18.7875 16.8375L21.2875 19.3375C21.65 19.7 21.65 20.3 21.2875 20.6625Z" fill="#1AAB7B"/>
</svg>
